<svg width="101" height="62" viewBox="0 0 101 62" fill="none" xmlns="http://www.w3.org/2000/svg">
<g id="noto:play-button">
<path id="Vector" d="M91.8942 1.91797H9.83173C6.34407 1.91797 3.51923 3.65203 3.51923 5.79297V56.168C3.51923 58.3089 6.34407 60.043 9.83173 60.043H91.8942C95.3819 60.043 98.2067 58.3089 98.2067 56.168V5.79297C98.2067 3.65203 95.3819 1.91797 91.8942 1.91797Z" fill="#F77E00"/>
<path id="Vector_2" d="M86.9232 1.91797H9.43721C7.87118 1.92494 6.37251 2.30992 5.26513 2.9897C4.15775 3.66948 3.5306 4.58945 3.51924 5.55078V52.9711C3.51135 54.9764 6.15471 56.5991 9.42143 56.6039H86.8442C90.111 56.6088 92.7543 54.9861 92.7622 52.9808V5.55078C92.8332 3.58906 90.2924 1.96156 87.0967 1.91797H86.9232Z" fill="#FF9800"/>
<path id="Vector_3" opacity="0.75" d="M31.6888 6.22924C31.6888 5.11517 30.4263 4.77611 23.1669 4.92142C17.0911 5.06674 14.0927 5.50267 12.2778 6.85892C10.463 8.21517 9.98955 10.9761 9.91064 14.2699C9.91064 16.5949 9.91064 18.7745 11.8833 18.7745C14.5661 18.7745 14.5661 14.948 16.7755 12.8167C21.0364 8.60267 31.6888 7.68236 31.6888 6.22924Z" fill="#FFBD52"/>
<path id="Vector_4" d="M34.4821 30.133V17.6845C34.4747 17.4898 34.5522 17.2974 34.7065 17.1272C34.8608 16.957 35.0864 16.8152 35.3599 16.7164C35.6334 16.6177 35.9449 16.5655 36.2623 16.5654C36.5796 16.5653 36.8912 16.6172 37.1649 16.7158L71.4891 29.1642C72.3807 29.513 72.649 30.2395 72.0809 30.7869C71.931 30.9322 71.7258 31.0533 71.4891 31.1502L37.1649 43.5502C36.3127 43.8553 35.2238 43.681 34.7267 43.1578C34.561 42.9834 34.4742 42.7849 34.4821 42.5814V30.133Z" fill="#FAFAFA"/>
</g>
</svg>
